<svg id="visual" viewBox="0 0 960 540" width="960" height="540" xmlns="http://www.w3.org/2000/svg" xmlns:xlink="http://www.w3.org/1999/xlink" version="1.1"><path d="M0 98L14.5 99.8C29 101.7 58 105.3 87.2 105.3C116.3 105.3 145.7 101.7 174.8 110.7C204 119.7 233 141.3 262 145.8C291 150.3 320 137.7 349 134C378 130.3 407 135.7 436.2 139.3C465.3 143 494.7 145 523.8 144.2C553 143.3 582 139.7 611 135.2C640 130.7 669 125.3 698 127.2C727 129 756 138 785.2 138.8C814.3 139.7 843.7 132.3 872.8 132.3C902 132.3 931 139.7 945.5 143.3L960 147L960 0L945.5 0C931 0 902 0 872.8 0C843.7 0 814.3 0 785.2 0C756 0 727 0 698 0C669 0 640 0 611 0C582 0 553 0 523.8 0C494.7 0 465.3 0 436.2 0C407 0 378 0 349 0C320 0 291 0 262 0C233 0 204 0 174.8 0C145.7 0 116.3 0 87.2 0C58 0 29 0 14.5 0L0 0Z" fill="#282828"></path><path d="M0 255L14.5 256.8C29 258.7 58 262.3 87.2 261.3C116.3 260.3 145.7 254.7 174.8 260C204 265.3 233 281.7 262 281.7C291 281.7 320 265.3 349 257.2C378 249 407 249 436.2 251.8C465.3 254.7 494.7 260.3 523.8 263.2C553 266 582 266 611 266C640 266 669 266 698 265C727 264 756 262 785.2 262C814.3 262 843.7 264 872.8 266.7C902 269.3 931 272.7 945.5 274.3L960 276L960 145L945.5 141.3C931 137.7 902 130.3 872.8 130.3C843.7 130.3 814.3 137.7 785.2 136.8C756 136 727 127 698 125.2C669 123.3 640 128.7 611 133.2C582 137.7 553 141.3 523.8 142.2C494.7 143 465.3 141 436.2 137.3C407 133.7 378 128.3 349 132C320 135.7 291 148.3 262 143.8C233 139.3 204 117.7 174.8 108.7C145.7 99.7 116.3 103.3 87.2 103.3C58 103.3 29 99.7 14.5 97.8L0 96Z" fill="#2a2a35"></path><path d="M0 303L14.5 302.2C29 301.3 58 299.7 87.2 298C116.3 296.3 145.7 294.7 174.8 300C204 305.3 233 317.7 262 316.7C291 315.7 320 301.3 349 293.3C378 285.3 407 283.7 436.2 288.2C465.3 292.7 494.7 303.3 523.8 308.7C553 314 582 314 611 313.2C640 312.3 669 310.7 698 307.2C727 303.7 756 298.3 785.2 296.5C814.3 294.7 843.7 296.3 872.8 301.7C902 307 931 316 945.5 320.5L960 325L960 274L945.5 272.3C931 270.7 902 267.3 872.8 264.7C843.7 262 814.3 260 785.2 260C756 260 727 262 698 263C669 264 640 264 611 264C582 264 553 264 523.8 261.2C494.7 258.3 465.3 252.7 436.2 249.8C407 247 378 247 349 255.2C320 263.3 291 279.7 262 279.7C233 279.7 204 263.3 174.8 258C145.7 252.7 116.3 258.3 87.2 259.3C58 260.3 29 256.7 14.5 254.8L0 253Z" fill="#2b2d42"></path><path d="M0 384L14.5 384C29 384 58 384 87.2 381.3C116.3 378.7 145.7 373.3 174.8 376.2C204 379 233 390 262 391.8C291 393.7 320 386.3 349 379C378 371.7 407 364.3 436.2 365.2C465.3 366 494.7 375 523.8 378.7C553 382.3 582 380.7 611 382.5C640 384.3 669 389.7 698 392.3C727 395 756 395 785.2 391.5C814.3 388 843.7 381 872.8 380.2C902 379.3 931 384.7 945.5 387.3L960 390L960 323L945.5 318.5C931 314 902 305 872.8 299.7C843.7 294.3 814.3 292.7 785.2 294.5C756 296.3 727 301.7 698 305.2C669 308.7 640 310.3 611 311.2C582 312 553 312 523.8 306.7C494.7 301.3 465.3 290.7 436.2 286.2C407 281.7 378 283.3 349 291.3C320 299.3 291 313.7 262 314.7C233 315.7 204 303.3 174.8 298C145.7 292.7 116.3 294.3 87.2 296C58 297.7 29 299.3 14.5 300.2L0 301Z" fill="#2b2f4f"></path><path d="M0 428L14.5 428C29 428 58 428 87.2 427C116.3 426 145.7 424 174.8 426.7C204 429.3 233 436.7 262 437.7C291 438.7 320 433.3 349 428.8C378 424.3 407 420.7 436.2 423.3C465.3 426 494.7 435 523.8 435.8C553 436.7 582 429.3 611 430.2C640 431 669 440 698 442.7C727 445.3 756 441.7 785.2 439.8C814.3 438 843.7 438 872.8 439C902 440 931 442 945.5 443L960 444L960 388L945.5 385.3C931 382.7 902 377.3 872.8 378.2C843.7 379 814.3 386 785.2 389.5C756 393 727 393 698 390.3C669 387.7 640 382.3 611 380.5C582 378.7 553 380.3 523.8 376.7C494.7 373 465.3 364 436.2 363.2C407 362.3 378 369.7 349 377C320 384.3 291 391.7 262 389.8C233 388 204 377 174.8 374.2C145.7 371.3 116.3 376.7 87.2 379.3C58 382 29 382 14.5 382L0 382Z" fill="#2a325c"></path><path d="M0 465L14.5 466C29 467 58 469 87.2 470.8C116.3 472.7 145.7 474.3 174.8 477C204 479.7 233 483.3 262 484.3C291 485.3 320 483.7 349 481C378 478.3 407 474.7 436.2 476.3C465.3 478 494.7 485 523.8 485C553 485 582 478 611 478C640 478 669 485 698 485.8C727 486.7 756 481.3 785.2 478.7C814.3 476 843.7 476 872.8 477C902 478 931 480 945.5 481L960 482L960 442L945.5 441C931 440 902 438 872.8 437C843.7 436 814.3 436 785.2 437.8C756 439.7 727 443.3 698 440.7C669 438 640 429 611 428.2C582 427.3 553 434.7 523.8 433.8C494.7 433 465.3 424 436.2 421.3C407 418.7 378 422.3 349 426.8C320 431.3 291 436.7 262 435.7C233 434.7 204 427.3 174.8 424.7C145.7 422 116.3 424 87.2 425C58 426 29 426 14.5 426L0 426Z" fill="#27346a"></path><path d="M0 541L14.5 541C29 541 58 541 87.2 541C116.3 541 145.7 541 174.8 541C204 541 233 541 262 541C291 541 320 541 349 541C378 541 407 541 436.2 541C465.3 541 494.7 541 523.8 541C553 541 582 541 611 541C640 541 669 541 698 541C727 541 756 541 785.2 541C814.3 541 843.7 541 872.8 541C902 541 931 541 945.5 541L960 541L960 480L945.5 479C931 478 902 476 872.8 475C843.7 474 814.3 474 785.2 476.7C756 479.3 727 484.7 698 483.8C669 483 640 476 611 476C582 476 553 483 523.8 483C494.7 483 465.3 476 436.2 474.3C407 472.7 378 476.3 349 479C320 481.7 291 483.3 262 482.3C233 481.3 204 477.7 174.8 475C145.7 472.3 116.3 470.7 87.2 468.8C58 467 29 465 14.5 464L0 463Z" fill="#223778"></path></svg>