<svg id="visual" viewBox="0 0 900 450" width="900" height="450" xmlns="http://www.w3.org/2000/svg" xmlns:xlink="http://www.w3.org/1999/xlink" version="1.1"><rect x="0" y="0" width="900" height="450" fill="#252525"></rect><defs><linearGradient id="grad1_0" x1="50%" y1="0%" x2="100%" y2="100%"><stop offset="10%" stop-color="#4169e1" stop-opacity="1"></stop><stop offset="90%" stop-color="#4169e1" stop-opacity="1"></stop></linearGradient></defs><defs><linearGradient id="grad1_1" x1="50%" y1="0%" x2="100%" y2="100%"><stop offset="10%" stop-color="#4169e1" stop-opacity="1"></stop><stop offset="90%" stop-color="#41519d" stop-opacity="1"></stop></linearGradient></defs><defs><linearGradient id="grad1_2" x1="50%" y1="0%" x2="100%" y2="100%"><stop offset="10%" stop-color="#373a5e" stop-opacity="1"></stop><stop offset="90%" stop-color="#41519d" stop-opacity="1"></stop></linearGradient></defs><defs><linearGradient id="grad1_3" x1="50%" y1="0%" x2="100%" y2="100%"><stop offset="10%" stop-color="#373a5e" stop-opacity="1"></stop><stop offset="90%" stop-color="#252525" stop-opacity="1"></stop></linearGradient></defs><defs><linearGradient id="grad2_0" x1="0%" y1="0%" x2="50%" y2="100%"><stop offset="10%" stop-color="#4169e1" stop-opacity="1"></stop><stop offset="90%" stop-color="#4169e1" stop-opacity="1"></stop></linearGradient></defs><defs><linearGradient id="grad2_1" x1="0%" y1="0%" x2="50%" y2="100%"><stop offset="10%" stop-color="#41519d" stop-opacity="1"></stop><stop offset="90%" stop-color="#4169e1" stop-opacity="1"></stop></linearGradient></defs><defs><linearGradient id="grad2_2" x1="0%" y1="0%" x2="50%" y2="100%"><stop offset="10%" stop-color="#41519d" stop-opacity="1"></stop><stop offset="90%" stop-color="#373a5e" stop-opacity="1"></stop></linearGradient></defs><defs><linearGradient id="grad2_3" x1="0%" y1="0%" x2="50%" y2="100%"><stop offset="10%" stop-color="#252525" stop-opacity="1"></stop><stop offset="90%" stop-color="#373a5e" stop-opacity="1"></stop></linearGradient></defs><g transform="translate(900, 0)"><path d="M0 270C-17.5 256.8 -35 243.6 -54.7 239.8C-74.4 236.1 -96.3 241.9 -113.7 236.1C-131 230.2 -143.9 212.8 -159 199.4C-174.1 186 -191.5 176.6 -204.1 162.7C-216.6 148.8 -224.2 130.3 -234.3 112.8C-244.3 95.3 -256.9 78.7 -263.2 60.1C-269.6 41.4 -269.8 20.7 -270 0L0 0Z" fill="#2f2f41"></path><path d="M0 202.5C-13.1 192.6 -26.3 182.7 -41.1 179.9C-55.8 177.1 -72.2 181.4 -85.3 177C-98.3 172.7 -107.9 159.6 -119.2 149.5C-130.6 139.5 -143.7 132.5 -153 122C-162.4 111.6 -168.1 97.8 -175.7 84.6C-183.2 71.5 -192.6 59 -197.4 45.1C-202.2 31.1 -202.3 15.5 -202.5 0L0 0Z" fill="#3d457d"></path><path d="M0 135C-8.8 128.4 -17.5 121.8 -27.4 119.9C-37.2 118.1 -48.2 120.9 -56.8 118C-65.5 115.1 -71.9 106.4 -79.5 99.7C-87.1 93 -95.8 88.3 -102 81.4C-108.3 74.4 -112.1 65.2 -117.1 56.4C-122.2 47.6 -128.4 39.4 -131.6 30C-134.8 20.7 -134.9 10.4 -135 0L0 0Z" fill="#425dbe"></path><path d="M0 67.5C-4.4 64.2 -8.8 60.9 -13.7 60C-18.6 59 -24.1 60.5 -28.4 59C-32.8 57.6 -36 53.2 -39.7 49.8C-43.5 46.5 -47.9 44.2 -51 40.7C-54.1 37.2 -56 32.6 -58.6 28.2C-61.1 23.8 -64.2 19.7 -65.8 15C-67.4 10.4 -67.4 5.2 -67.5 0L0 0Z" fill="#4169e1"></path></g><g transform="translate(0, 450)"><path d="M0 -270C19.8 -264.8 39.6 -259.6 57.4 -251.5C75.2 -243.5 91.1 -232.6 107.6 -223.4C124.1 -214.3 141.3 -206.9 157.1 -197C172.9 -187.1 187.4 -174.7 202.5 -161.5C217.6 -148.3 233.5 -134.4 243.3 -117.1C253.1 -99.9 256.9 -79.5 260.3 -59.4C263.8 -39.3 266.9 -19.7 270 0L0 0Z" fill="#2f2f41"></path><path d="M0 -202.5C14.8 -198.6 29.7 -194.7 43.1 -188.6C56.4 -182.6 68.3 -174.4 80.7 -167.6C93.1 -160.7 106 -155.2 117.8 -147.8C129.7 -140.3 140.5 -131 151.9 -121.1C163.2 -111.2 175.1 -100.8 182.4 -87.9C189.8 -75 192.6 -59.6 195.2 -44.6C197.8 -29.5 200.2 -14.8 202.5 0L0 0Z" fill="#3d457d"></path><path d="M0 -135C9.9 -132.4 19.8 -129.8 28.7 -125.8C37.6 -121.7 45.5 -116.3 53.8 -111.7C62.1 -107.2 70.7 -103.5 78.6 -98.5C86.5 -93.6 93.7 -87.3 101.2 -80.7C108.8 -74.1 116.7 -67.2 121.6 -58.6C126.5 -50 128.4 -39.7 130.2 -29.7C131.9 -19.7 133.4 -9.8 135 0L0 0Z" fill="#425dbe"></path><path d="M0 -67.5C4.9 -66.2 9.9 -64.9 14.4 -62.9C18.8 -60.9 22.8 -58.1 26.9 -55.9C31 -53.6 35.3 -51.7 39.3 -49.3C43.2 -46.8 46.8 -43.7 50.6 -40.4C54.4 -37.1 58.4 -33.6 60.8 -29.3C63.3 -25 64.2 -19.9 65.1 -14.9C65.9 -9.8 66.7 -4.9 67.5 0L0 0Z" fill="#4169e1"></path></g></svg>